<svg width="947" height="174" viewBox="0 0 947 174" fill="none" xmlns="http://www.w3.org/2000/svg">
<g clip-path="url(#clip0)">
<path d="M412.812 70.0108C416.278 73.1894 423.312 78.0108 423.312 78.0108V63.5108C423.324 62.9394 422.624 56.1634 418.312 59.0108C414.001 61.8582 412.205 59.0041 411.934 59.0108C411.826 53.1728 411.849 49.6013 411.812 43.5108C411.812 43.5108 412.993 41.4175 414.312 41.0108C415.144 40.7545 416.54 41.0108 416.54 41.0108C417.777 38.9672 419.304 36.5295 420.312 34.0108C420.349 30.661 405.691 28.8633 405.312 38.0108C404.934 47.1583 405.312 63.0202 405.312 63.0202C407.587 65.2119 409.839 67.2835 412.812 70.0108Z" fill="#383838"/>
<path d="M414.312 173.511C415.141 173.511 415.812 172.011 415.812 172.011L420.812 102.511C419.001 94.4848 417.216 89.9238 407.312 86.5108L411.462 151.011L412.008 159.511C412.018 159.542 412.02 159.573 412.014 159.603L412.812 172.011C412.812 172.011 413.484 173.511 414.312 173.511Z" fill="#383838"/>
<path d="M390.312 69.0108C389.731 66.8795 386.312 65.0108 386.312 65.0108C386.312 65.0108 374.898 75.3241 368.812 83.0108C353.831 101.934 352.312 133.511 368.812 148.011C385.029 162.262 411.665 161.354 412.014 159.603L412.008 159.511L411.462 151.011C411.462 151.011 389.812 154.511 375.812 141.511C361.812 128.511 362.982 104.501 375.812 88.0108C380.755 81.6578 390.847 72.7382 390.312 72.0108C390.312 72.0108 390.621 70.1411 390.312 69.0108Z" fill="#383838"/>
<path d="M401.812 9.01079C412.187 8.74622 421.812 18.0108 421.812 26.5108C421.812 28.8822 421.323 31.4872 420.312 34.0108C419.304 36.5295 417.777 38.9672 416.54 41.0108C414.575 44.2585 411.934 47.5108 411.934 47.5108L411.919 57.1318C412.483 56.3086 431.312 42.0417 431.312 26.5108C431.312 10.5108 417.293 -0.391869 401.812 0.0107915C386.762 0.402254 375.812 12.5108 373.812 26.5108C371.812 40.5108 382.812 53.0108 382.812 53.0108L392.312 62.5108L401.812 72.0108L449.72 113.93L449.812 114.011L450.556 110.589L450.837 109.296L452.312 102.511L452.021 102.265L423.312 78.0108C423.312 78.0108 416.278 73.1894 412.812 70.0108C409.839 67.2835 407.587 65.2119 405.312 63.0202C403.461 61.2362 401.595 59.3725 399.312 57.0108C394.028 51.5419 389.312 46.5108 386.312 42.5108C383.312 38.5108 381.681 32.8061 382.812 26.5108C384.596 16.582 391.728 9.26795 401.812 9.01079Z" fill="#383838"/>
<path d="M449.812 114.011L449.72 113.93C448.124 119.707 445.776 125.216 442.312 129.511C429.812 145.011 423.312 148.011 423.312 148.011C421.095 154.421 421.189 156.27 423.312 157.011C423.312 157.011 436.696 149.875 443.312 143.011C453.615 132.323 457.451 123.578 460.312 109.011C463.033 95.1589 457.598 75.1861 456.812 76.5108C454.381 76.2012 453.842 77.326 453.312 80.0108C453.027 81.4544 453.483 91.1755 452.021 102.265L452.312 102.511L450.837 109.296C450.747 109.727 450.654 110.158 450.556 110.589L449.812 114.011Z" fill="#383838"/>
<path d="M423.312 78.0108C423.312 78.0108 416.278 73.1894 412.812 70.0108C409.839 67.2835 407.587 65.2119 405.312 63.0202M423.312 78.0108V63.5108C423.324 62.9394 422.624 56.1634 418.312 59.0108C414.001 61.8582 412.205 59.0041 411.934 59.0108C411.826 53.1728 411.849 49.6013 411.812 43.5108C411.812 43.5108 412.993 41.4175 414.312 41.0108C415.144 40.7545 416.54 41.0108 416.54 41.0108M423.312 78.0108L452.021 102.265M405.312 63.0202C403.461 61.2362 401.595 59.3725 399.312 57.0108C394.028 51.5419 389.312 46.5108 386.312 42.5108C383.312 38.5108 381.681 32.8061 382.812 26.5108C384.596 16.582 391.728 9.26795 401.812 9.01079C412.187 8.74622 421.812 18.0108 421.812 26.5108C421.812 28.8822 421.323 31.4872 420.312 34.0108M405.312 63.0202C405.312 63.0202 404.934 47.1583 405.312 38.0108C405.691 28.8633 420.349 30.661 420.312 34.0108M416.54 41.0108C414.575 44.2585 411.934 47.5108 411.934 47.5108L411.919 57.1318M416.54 41.0108C417.777 38.9672 419.304 36.5295 420.312 34.0108M411.462 151.011L407.312 86.5108C417.216 89.9238 419.001 94.4848 420.812 102.511L415.812 172.011C415.812 172.011 415.141 173.511 414.312 173.511C413.484 173.511 412.812 172.011 412.812 172.011L412.014 159.603M411.462 151.011C411.462 151.011 389.812 154.511 375.812 141.511C361.812 128.511 362.982 104.501 375.812 88.0108C380.755 81.6578 390.847 72.7382 390.312 72.0108C390.312 72.0108 390.621 70.1411 390.312 69.0108C389.731 66.8795 386.312 65.0108 386.312 65.0108C386.312 65.0108 374.898 75.3241 368.812 83.0108C353.831 101.934 352.312 133.511 368.812 148.011C385.029 162.262 411.665 161.354 412.014 159.603M411.462 151.011L412.008 159.511M412.008 159.511C412.018 159.542 412.02 159.573 412.014 159.603M412.008 159.511L412.014 159.603M411.919 57.1318C412.483 56.3086 431.312 42.0417 431.312 26.5108C431.312 10.5108 417.293 -0.391869 401.812 0.0107915C386.762 0.402254 375.812 12.5108 373.812 26.5108C371.812 40.5108 382.812 53.0108 382.812 53.0108L392.312 62.5108L401.812 72.0108L449.72 113.93M411.919 57.1318L411.919 57.1692C411.902 57.1692 411.902 57.1566 411.919 57.1318ZM449.72 113.93L449.812 114.011L450.556 110.589M449.72 113.93C448.124 119.707 445.776 125.216 442.312 129.511C429.812 145.011 423.312 148.011 423.312 148.011C421.095 154.421 421.189 156.27 423.312 157.011C423.312 157.011 436.696 149.875 443.312 143.011C453.615 132.323 457.451 123.578 460.312 109.011C463.033 95.1589 457.598 75.1861 456.812 76.5108C454.381 76.2012 453.842 77.326 453.312 80.0108C453.027 81.4544 453.483 91.1755 452.021 102.265M449.72 113.93C450.025 112.824 450.303 111.708 450.556 110.589M452.021 102.265L452.312 102.511L450.837 109.296M452.021 102.265C451.717 104.57 451.331 106.935 450.837 109.296M450.837 109.296C450.747 109.727 450.654 110.158 450.556 110.589M450.837 109.296L450.556 110.589" stroke="#383838"/>
<path d="M458.312 158.511C458.312 158.511 463.073 149.382 464.312 143.011C465.655 136.111 464.312 125.011 464.312 125.011C464.312 125.011 462.812 120.011 461.312 120.011C459.812 120.011 458.312 128.011 458.312 130.511C458.312 133.011 457.608 146.773 456.312 157.511C456.994 159.319 457.429 159.584 458.312 158.511Z" fill="#383838" stroke="#383838"/>
<path d="M518.724 87.68C525.032 88.896 529.706 90.188 532.746 91.556C535.862 92.924 538.104 94.976 539.472 97.712C540.916 100.372 541.638 104.248 541.638 109.34C541.638 115.04 540.612 119.524 538.56 122.792C536.508 126.06 533.278 128.416 528.87 129.86C524.462 131.228 518.458 131.912 510.858 131.912C500.598 131.912 491.098 130.772 482.358 128.492V108.2H490.224L492.162 121.31C498.242 122.754 504.588 123.476 511.2 123.476C516.824 123.476 521.08 123.058 523.968 122.222C526.932 121.386 528.946 120.094 530.01 118.346C531.074 116.522 531.606 114.052 531.606 110.936C531.606 107.136 531.15 104.476 530.238 102.956C529.326 101.436 527.502 100.258 524.766 99.422C522.03 98.586 516.748 97.446 508.92 96.002L506.07 95.432C499.838 94.292 495.012 92.924 491.592 91.328C488.248 89.656 485.854 87.49 484.41 84.83C483.042 82.17 482.358 78.636 482.358 74.228C482.358 68.832 483.346 64.576 485.322 61.46C487.374 58.268 490.566 55.988 494.898 54.62C499.23 53.252 505.006 52.568 512.226 52.568C521.118 52.568 530.314 53.556 539.814 55.532V75.482H532.29L530.466 62.828C524.69 61.612 518.458 61.004 511.77 61.004C506.526 61.004 502.498 61.422 499.686 62.258C496.874 63.018 494.936 64.234 493.872 65.906C492.884 67.502 492.39 69.706 492.39 72.518C492.39 76.014 492.884 78.522 493.872 80.042C494.936 81.562 496.836 82.74 499.572 83.576C502.384 84.412 507.59 85.552 515.19 86.996L518.724 87.68ZM627.308 124.73V131H601.088V124.73L609.068 121.652L602.912 104.894H569.282L563.012 121.766L571.106 124.73V131H546.824V124.73L554.69 121.196L580.682 52.568H593.45L619.442 121.082L627.308 124.73ZM599.948 96.8L586.154 59.408L572.246 96.8H599.948ZM693.255 75.368H686.985L683.679 61.688H663.045V121.31L672.621 124.73V131H643.665V124.73L653.241 121.31V61.688H632.607L629.301 75.368H623.031V53.48H693.255V75.368ZM769.61 73.658H762.884L759.92 61.688H721.16V87.908H743.846L745.556 79.13H751.826V104.894H745.556L743.846 96.116H721.16V122.792H759.92L762.884 109.682H769.61V131H702.92V124.73L711.356 121.31V63.284L702.92 59.978V53.48H769.61V73.658ZM848.542 73.658H841.816L838.852 61.688H800.092V87.908H822.778L824.488 79.13H830.758V104.894H824.488L822.778 96.116H800.092V122.792H838.852L841.816 109.682H848.542V131H781.852V124.73L790.288 121.31V63.284L781.852 59.978V53.48H848.542V73.658ZM941.496 53.48V59.978L933.06 63.284V131H921.432L877.542 65.678V121.31L886.548 124.73V131H860.784V124.73L869.22 121.31V63.284L860.784 59.978V53.48H880.848L924.624 118.688V63.284L915.618 59.978V53.48H941.496Z" fill="#383838"/>
<path d="M73.644 69.368H67.374L64.068 55.688H43.434V115.31L53.01 118.73V125H24.054V118.73L33.63 115.31V55.688H12.996L9.69 69.368H3.42V47.48H73.644V69.368ZM162.881 53.978L153.305 57.284V94.562C153.305 106.19 150.797 114.474 145.781 119.414C140.841 124.278 133.203 126.71 122.867 126.71C112.303 126.71 104.285 124.278 98.8131 119.414C93.3411 114.474 90.6051 106.456 90.6051 95.36V57.284L82.1691 53.978V47.48H108.845V53.978L100.409 57.284V94.562C100.409 100.566 101.207 105.316 102.803 108.812C104.475 112.232 106.945 114.664 110.213 116.108C113.557 117.552 117.927 118.274 123.323 118.274C128.415 118.274 132.519 117.628 135.635 116.336C138.751 114.968 141.107 112.65 142.703 109.382C144.299 106.038 145.097 101.364 145.097 95.36V57.284L135.863 53.978V47.48H162.881V53.978ZM200.384 53.978L191.948 57.284V116.792H228.77L231.734 103.682H238.46V125H173.708V118.73L182.144 115.31V57.284L173.708 53.978V47.48H200.384V53.978ZM273.637 53.978L265.201 57.284V115.31L273.637 118.73V125H246.961V118.73L255.397 115.31V57.284L246.961 53.978V47.48H273.637V53.978ZM304.389 94.22V115.196L312.825 118.73V125H286.149V118.73L294.585 115.196V57.284L286.149 53.978V47.48H331.521C338.893 47.48 344.479 49.456 348.279 53.408C352.079 57.36 353.979 63.174 353.979 70.85C353.979 78.526 351.965 84.34 347.937 88.292C343.985 92.244 338.171 94.22 330.495 94.22H304.389ZM343.719 70.85C343.719 65.53 342.655 61.692 340.527 59.336C338.475 56.904 335.169 55.688 330.609 55.688H304.389V86.012H329.469C334.561 86.012 338.209 84.834 340.413 82.478C342.617 80.122 343.719 76.246 343.719 70.85Z" fill="#383838"/>
</g>
<defs>
<clipPath id="clip0">
<rect width="947" height="174" fill="white"/>
</clipPath>
</defs>
</svg>
